<?xml version="1.0" encoding="UTF-8" standalone="no"?>
<!-- Created with Inkscape (http://www.inkscape.org/) -->

<svg
   xmlns:dc="http://purl.org/dc/elements/1.1/"
   xmlns:cc="http://creativecommons.org/ns#"
   xmlns:rdf="http://www.w3.org/1999/02/22-rdf-syntax-ns#"
   xmlns:svg="http://www.w3.org/2000/svg"
   xmlns="http://www.w3.org/2000/svg"
   xmlns:sodipodi="http://sodipodi.sourceforge.net/DTD/sodipodi-0.dtd"
   xmlns:inkscape="http://www.inkscape.org/namespaces/inkscape"
   width="210mm"
   height="297mm"
   id="svg2"
   version="1.1"
   inkscape:version="0.48.1 r9760"
   sodipodi:docname="wordcana.svg">
  <defs
     id="defs4">
    <clipPath
       id="clipPath3170"
       clipPathUnits="userSpaceOnUse">
      <path
         id="path3172"
         d="M 0,246 1208,246 1208,0 0,0 0,246 z" />
    </clipPath>
  </defs>
  <sodipodi:namedview
     id="base"
     pagecolor="#ffffff"
     bordercolor="#666666"
     borderopacity="1.0"
     inkscape:pageopacity="0.0"
     inkscape:pageshadow="2"
     inkscape:zoom="0.35"
     inkscape:cx="-317.89988"
     inkscape:cy="464.07465"
     inkscape:document-units="px"
     inkscape:current-layer="layer1"
     showgrid="false"
     inkscape:window-width="1366"
     inkscape:window-height="713"
     inkscape:window-x="0"
     inkscape:window-y="31"
     inkscape:window-maximized="1" />
  <metadata
     id="metadata7">
    <rdf:RDF>
      <cc:Work
         rdf:about="">
        <dc:format>image/svg+xml</dc:format>
        <dc:type
           rdf:resource="http://purl.org/dc/dcmitype/StillImage" />
        <dc:title></dc:title>
      </cc:Work>
    </rdf:RDF>
  </metadata>
  <g
     inkscape:label="Camada 1"
     inkscape:groupmode="layer"
     id="layer1">
    <g
       id="g3105"
       transform="matrix(0.98013885,0,0,0.98013885,-12.080557,-22.010073)"
       inkscape:export-filename="/home/vinicius/docs/wordcamp-2012/wordcana.png"
       inkscape:export-xdpi="90"
       inkscape:export-ydpi="90">
      <path
         style="fill:#f2f2f2"
         d="m -317.76068,632.72648 c -19.35288,-1.34058 -31.15824,-4.56351 -36.75348,-10.03389 -4.09235,-4.00103 -4.9503,-8.72048 -5.71491,-31.43676 -1.88189,-55.91046 -8.20303,-127.69494 -14.13318,-160.5 -0.84509,-4.675 -1.91346,-11.425 -2.37414,-15 -2.91253,-22.6017 -11.99552,-67.98736 -14.64951,-73.20034 -2.42808,-4.76923 -1.78299,-8.58081 1.82343,-10.774 4.24322,-2.58046 9.61525,-3.6512 28.50078,-5.68068 20.80008,-2.23523 132.15455,-2.61979 152.80101,-0.5277 18.62164,1.88692 29.33072,3.93798 33.96218,6.50461 3.70221,2.05167 4.0298,2.56765 3.94128,6.20788 -0.0531,2.18363 -1.47897,9.37023 -3.1686,15.97023 -6.29042,24.5715 -16.82966,83.79481 -21.26594,119.5 -2.04232,16.43757 -5.94075,56.36694 -6.93195,71 -0.57746,8.525 -1.72243,25.175 -2.54439,37 -0.82195,11.825 -1.49404,24.10985 -1.49352,27.29966 0.002,9.72961 -3.28672,13.65126 -15.1797,18.10342 -7.75723,2.90393 -18.20345,4.33232 -40.89271,5.59156 -19.44646,1.07927 -40.12791,1.0704 -55.92665,-0.024 z m 31.36163,-111.47065 c 1.01085,-2.63425 -0.42762,-4.72683 -2.74954,-3.99983 -1.16165,0.36371 -3.12459,0.90243 -4.36209,1.19714 -3.13336,0.74622 -2.80865,1.70583 1,2.95528 4.69476,1.54015 5.46948,1.52081 6.11163,-0.15259 z"
         id="path3135"
         inkscape:connector-curvature="0" />
      <path
         style="fill:#e8e8e8"
         d="m -320.26068,632.13158 c -9.28735,-0.9611 -18.34319,-2.55953 -23.3028,-4.11315 -6.42035,-2.01121 -12.68171,-7.13528 -14.08748,-11.52869 -0.56912,-1.77865 -1.73368,-18.83232 -2.58792,-37.89704 -2.54514,-56.8023 -6.46922,-101.83238 -12.05517,-138.33687 -1.34658,-8.8 -3.34835,-22.075 -4.44838,-29.5 -1.10002,-7.425 -2.47321,-16.65 -3.05153,-20.5 -1.68287,-11.20326 -8.71565,-42.96334 -10.41323,-47.02622 -2.41374,-5.77689 -2.03916,-9.17149 1.19651,-10.84327 7.95664,-4.11099 27.5531,-6.23784 71.25,-7.73291 63.34915,-2.16746 126.73637,1.12462 141.28991,7.33804 5.7415,2.45125 7.13243,4.54157 5.62204,8.44888 -4.97014,12.85753 -15.24901,67.59315 -23.34535,124.31548 -4.06113,28.45195 -7.63515,68.1672 -10.52899,117 -2.27485,38.38773 -2.18001,38.01416 -10.75156,42.35171 -12.03249,6.08894 -25.59635,7.72596 -67.28605,8.12074 -18.425,0.17448 -35.3,0.13096 -37.5,-0.0967 z m 47.27033,-24.62575 c 1.65828,-2.04177 1.89107,-20.70104 0.30999,-24.84742 l -1.37175,-3.59741 -14.10428,0.31601 c -7.75736,0.1738 -14.32929,0.33032 -14.60429,0.34782 -1.23696,0.0787 0.0994,25.76472 1.45449,27.95737 0.99227,1.60552 27.0002,1.44353 28.31584,-0.17637 z m -2.1109,-67.86826 c 3.38768,-1.09149 7.34943,-3.08737 8.80387,-4.43531 1.45444,-1.34793 3.9702,-3.13636 5.59057,-3.97429 1.80089,-0.93127 2.94613,-2.31653 2.94613,-3.56356 0,-1.12204 0.40667,-2.79993 0.90371,-3.72865 0.5414,-1.01163 0.51252,-6.29725 -0.0721,-13.18426 -0.53667,-6.32262 -1.08943,-14.71673 -1.22835,-18.65358 -0.164,-4.64719 -0.84024,-8.05477 -1.92795,-9.71481 -0.93425,-1.42591 -1.67531,-4.52903 -1.67531,-7.01537 0,-3.22002 -0.65556,-5.24365 -2.36004,-7.28518 -1.32863,-1.59137 -2.66497,-4.89243 -3.05778,-7.55342 -0.38375,-2.59968 -1.12174,-4.98874 -1.63996,-5.30902 -0.51822,-0.32028 -0.94222,-2.33802 -0.94222,-4.48388 0,-3.93146 -0.24985,-4.31522 -5.25,-8.06387 -2.69562,-2.02093 -3.72629,-4.91654 -1.75,-4.91654 0.55,0 1,-0.9 1,-2 0,-1.1 -0.58505,-2 -1.30011,-2 -0.71505,0 -7.27169,-0.47885 -14.57029,-1.0641 -9.72938,-0.78018 -13.63036,-0.76519 -14.62004,0.0562 -0.77239,0.64102 -1.56609,3.98386 -1.85532,7.8141 -0.88988,11.78433 -1.62753,14.27241 -4.76167,16.06098 -3.89875,2.22492 -4.19056,3.10961 -4.99138,15.13285 -0.38466,5.775 -1.17017,12.525 -1.7456,15 -0.57543,2.475 -1.44618,6.33468 -1.93501,8.57706 -0.48883,2.24239 -1.21603,4.60656 -1.616,5.25372 -0.39996,0.64716 -1.13092,4.21248 -1.62434,7.92294 -0.49342,3.71045 -1.18387,8.15406 -1.53434,9.87468 -0.81776,4.01485 0.69371,6.84514 7.33904,13.7427 4.28312,4.44568 6.65265,5.9666 12.5,8.02333 6.336,2.22861 8.31159,2.47287 16.21506,2.00482 4.95,-0.29315 11.77174,-1.42603 15.15943,-2.51751 z m -51.60924,-155.93726 c 11.39184,-0.80856 28.10528,-0.80161 62.5,0.026 25.8224,0.62135 49.53731,1.3879 52.69981,1.70345 l 5.75,0.57373 0,-5.75781 c 0,-5.3723 1.12081,-11.28242 3.03236,-15.98985 0.44668,-1.1 1.07189,-3.8 1.38935,-6 0.31747,-2.2 0.83701,-4.9439 1.15452,-6.09756 l 0.5773,-2.09755 -79.0587,0.16282 c -43.48228,0.0895 -79.36459,0.46872 -79.73846,0.84259 -0.37387,0.37387 -0.18542,2.3695 0.41879,4.43473 0.60421,2.06524 1.57698,5.89247 2.1617,8.50497 0.58473,2.6125 1.51057,6.6625 2.05744,9 0.9783,4.18163 1.76185,8.91877 1.92347,11.62883 0.0631,1.05752 1.18914,1.23791 4.83223,0.77411 2.6125,-0.33261 11.74759,-1.10141 20.30019,-1.70845 z m 118.53373,-46.19448 c 0.41218,-0.4125 0.53119,-0.96822 0.26447,-1.23494 -0.26672,-0.26672 -11.02922,-0.96184 -23.91667,-1.5447 -23.30065,-1.05383 -89.12813,0.11033 -101.93172,1.80267 -5.11414,0.67597 -4.72828,0.76876 5.5,1.32261 15.70753,0.85054 119.18628,0.5527 120.08392,-0.34564 z"
         id="path3133"
         inkscape:connector-curvature="0" />
      <path
         style="fill:#d7d8d8"
         d="m -318.28701,631.74902 c -14.85405,-1.17637 -24.67605,-3.35072 -30.84352,-6.828 -8.58224,-4.83874 -8.55568,-4.73468 -10.17397,-39.86456 -3.17284,-68.87609 -6.54336,-105.45411 -15.00142,-162.80063 -1.94688,-13.2 -3.98075,-27.15 -4.51971,-31 -1.58628,-11.33123 -8.83157,-43.56504 -11.05073,-49.16397 -2.72684,-6.87978 -1.77116,-8.54306 6.19251,-10.77755 10.36095,-2.90714 27.9078,-4.4845 62.92317,-5.65642 66.51764,-2.22628 130.75674,0.91562 144.68424,7.07641 5.02837,2.22429 6.06378,4.09007 4.34817,7.8353 -3.19278,6.96993 -6.30195,21.81194 -13.96973,66.68623 -11.79149,69.00759 -17.02721,118.17074 -20.74897,194.83156 -0.52403,10.79407 -0.96181,13.33466 -2.75703,16 -4.27124,6.34145 -16.39699,10.59809 -35.73448,12.54429 -14.72044,1.48153 -60.03385,2.17179 -73.34853,1.11734 z m 58.45354,-30.99319 c 0.60404,-13.37904 0.33807,-22.13472 -0.70404,-23.17683 -0.52234,-0.52234 -5.62081,-0.43205 -12.30746,0.21796 -6.79454,0.6605 -17.18422,0.8347 -25.66571,0.43034 -14.1636,-0.67527 -14.25,-0.66623 -14.25,1.49031 0,1.19334 -0.47006,3.04802 -1.04457,4.12151 -1.37078,2.56132 -0.10581,21.3288 1.59432,23.65386 1.10871,1.51624 4.05677,1.80205 24.10672,2.33705 12.56394,0.33526 23.96815,0.56821 25.34268,0.51768 2.45216,-0.0901 2.50722,-0.27055 2.92806,-9.59188 z m -11.53236,-52.62327 c 2.25783,-0.83248 5.45515,-1.86142 7.10515,-2.28653 4.61904,-1.19004 8.52695,-3.53845 14.1119,-8.48035 3.89464,-3.44622 5.68055,-6.02189 7.5,-10.81659 2.30771,-6.08141 2.38432,-7.16851 2.27594,-32.29326 -0.0888,-20.57715 -0.55593,-29.19719 -2.23981,-41.329 -1.17021,-8.43096 -2.44315,-15.8395 -2.82877,-16.46344 -0.77389,-1.25218 -2.17516,-8.00955 -2.94622,-14.20756 -0.66591,-5.3528 -3.41389,-10.49442 -5.87304,-10.98877 -3.55071,-0.71379 -69.93795,-1.25073 -71.824,-0.58092 -1.0032,0.35628 -1.73849,0.85521 -1.63397,1.10873 0.10452,0.25353 -0.36472,2.26096 -1.04275,4.46096 -2.56878,8.33494 -4.72121,27.51335 -5.94826,53 -2.40328,49.91725 -2.41098,50.63493 -0.60618,56.5 2.18613,7.1043 6.97256,13.69082 12.82721,17.65132 9.33393,6.31411 39.30142,9.08408 51.1228,4.72541 z m -68.88872,-162.06805 c 20.73911,-2.69946 111.84283,-1.83112 133.64599,1.27383 l 4.65212,0.66251 2.54487,-8.37251 c 1.39967,-4.60488 3.70471,-12.87251 5.1223,-18.37251 1.41759,-5.5 2.81246,-10.75818 3.09972,-11.68485 0.44371,-1.43136 -0.57548,-1.79677 -6.77442,-2.42881 -5.10292,-0.52028 -6.54507,-0.93491 -4.79671,-1.37907 5.26559,-1.33769 -5.39008,-1.92549 -18,-0.99295 -6.875,0.50843 -28.25,0.98306 -47.5,1.05473 -19.25,0.0717 -33.875,0.45245 -32.5,0.84618 l 2.5,0.71586 -2.57833,0.51296 c -1.41808,0.28214 -16.60867,0.31564 -33.75687,0.0745 -17.1482,-0.24118 -32.75045,-0.14362 -34.67167,0.21681 -2.98015,0.55908 -3.48834,1.05251 -3.46048,3.36 0.0299,2.48079 1.78287,8.12129 4.87338,15.68138 0.66927,1.63719 1.87726,6.11618 2.68443,9.95333 2.44382,11.61753 2.8264,11.75386 24.91567,8.87866 z m 121.49387,-47.34358 c 18.80165,-1.08067 22.18418,-1.60112 19.88213,-3.05911 -0.85764,-0.54318 1.84345,-0.90523 7.11787,-0.95406 10.62717,-0.0984 8.17027,-1.41379 -6.49738,-3.47861 -21.3239,-3.00186 -62.31684,-3.95495 -110.19605,-2.56208 -24.64362,0.71692 -46.83157,1.68325 -49.30657,2.1474 -2.82594,0.52996 2.38225,0.67831 14,0.39876 22.60572,-0.54394 48.20232,-0.69354 69.5,-0.40618 14.2259,0.19194 15.16839,0.30352 8.5,1.00636 -4.125,0.43477 -21.225,1.28827 -38,1.89665 -38.62388,1.40079 -48.68763,2.08145 -46.75619,3.16233 4.21611,2.35946 99.58755,3.69752 131.75619,1.84854 z"
         id="path3131"
         inkscape:connector-curvature="0" />
      <path
         style="fill:#c7c8c8"
         d="m -322.26068,631.13972 c -19.35373,-1.94414 -30.29003,-6.20959 -33.92034,-13.22985 -1.01238,-1.95772 -1.73533,-10.02736 -2.52628,-28.19831 -3.35824,-77.15074 -8.32496,-127.87871 -18.08478,-184.71024 -0.4963,-2.88999 -0.66474,-5.87376 -0.37431,-6.63062 0.9906,-2.58146 -8.39152,-46.95262 -11.62917,-54.99822 -2.60064,-6.46263 -2.484,-8.42311 0.58428,-9.82111 1.91258,-0.87143 3.34889,-0.87856 5.75,-0.0285 2.25912,0.79975 6.14219,0.86409 13.2006,0.2187 5.5,-0.5029 15.4,-0.8776 22,-0.83266 l 12,0.0817 -11.24004,1.20599 c -11.45734,1.22931 -14.35742,2.07516 -10.12796,2.95394 10.28962,2.13793 82.17547,3.74695 118.868,2.66062 25.08783,-0.74275 49.42532,-2.80576 56,-4.74693 2.39173,-0.70615 -1.57187,-2.53158 -8.5,-3.91465 -3.3,-0.65878 -5.1,-1.24134 -4,-1.29457 3.29286,-0.15936 15.85652,2.4833 19.0244,4.00163 3.73149,1.78846 4.13512,3.93051 1.73446,9.20476 -2.86969,6.30471 -9.08541,35.02131 -10.75637,49.69446 -0.34449,3.025 -2.15887,14.95 -4.03196,26.5 -10.40841,64.18105 -13.65009,95.99976 -18.41047,180.70768 -0.65021,11.57022 -1.23128,15.40071 -2.72387,17.95639 -3.20296,5.48422 -13.3495,9.46457 -30.35346,11.90724 -7.2835,1.04631 -74.48733,2.11575 -82.48273,1.31258 z m 70.98509,-32.63389 c 0.38116,-7.8375 0.54044,-16.275 0.35396,-18.75 l -0.33905,-4.5 -4.5,0.0527 c -2.475,0.029 -9.22273,0.65181 -14.99496,1.38403 -10.31385,1.30833 -34.90791,1.01134 -46.40156,-0.56032 l -4.89652,-0.66956 0.54206,15.89656 c 0.29813,8.74311 0.88161,16.73463 1.29663,17.75893 0.71508,1.76492 1.93711,1.83073 23.35446,1.25764 17.00468,-0.45502 24.45672,-0.26643 30.09989,0.76173 4.125,0.75156 9.14072,1.42313 11.14604,1.49237 l 3.64604,0.1259 0.69301,-14.25 z m -20.65029,-46.27196 c 15.99607,-2.59424 24.06231,-6.15146 33.30982,-14.68967 2.74794,-2.53716 4.15109,-5.07784 5.70318,-10.32672 1.9401,-6.56108 2.06655,-9.66599 2.19755,-53.96165 0.096,-32.44547 -0.22161,-48.70319 -1.02548,-52.5 -0.64047,-3.025 -1.24445,-6.51321 -1.34218,-7.75159 -0.13246,-1.67847 -0.94131,-2.36758 -3.17769,-2.70731 -1.65,-0.25065 -26.175,-0.63583 -54.5,-0.85596 l -51.5,-0.40023 -0.0948,4.10755 c -0.0521,2.25915 -0.27714,28.21728 -0.5,57.68475 l -0.40519,53.5772 2.44678,5.4228 c 7.83449,17.36358 13.29572,20.88395 36.05322,23.24032 8.96582,0.92834 24.36143,0.53472 32.8348,-0.83949 z m 71.93722,-163.72804 c 0.9925,-1.21999 5.15571,-14.17691 9.71969,-30.25 1.24938,-4.4 2.57574,-8.72948 2.94746,-9.62106 0.39498,-0.94739 -0.001,-2.29801 -0.95309,-3.25 -1.91323,-1.91323 -8.39776,-1.99584 -54.48608,-0.69408 -26.04556,0.73566 -56.30991,0.35819 -106.5,-1.32828 -14.62638,-0.49147 -14.82564,-0.4709 -8,0.82619 7.80231,1.48267 7.53271,1.56505 -8,2.44445 -12.68146,0.71798 -11.94696,-0.44434 -7.97657,12.62278 1.33692,4.4 3.37302,11.825 4.52467,16.5 2.90548,11.79451 3.82571,13 9.92374,13 2.70915,0 10.23628,-0.76829 16.72694,-1.70731 21.1506,-3.05989 127.90759,-1.78135 136.43729,1.634 3.27326,1.31064 4.45614,1.27355 5.63595,-0.17669 z m -1.50299,-59.44299 c 0.97297,-0.25354 2.32297,-0.23687 3,0.0371 0.67703,0.27392 -0.11903,0.48137 -1.76903,0.46099 -1.65,-0.0204 -2.20394,-0.2445 -1.23097,-0.49805 z m -144.26903,-1.35805 c 6.65785,-1.18467 15.86021,-1.15112 14,0.051 -0.825,0.53316 -5.325,0.91994 -10,0.85952 -7.52168,-0.0972 -7.98206,-0.20201 -4,-0.91056 z m 20.75,-0.65469 c 1.2375,-0.23836 3.2625,-0.23836 4.5,0 1.2375,0.23835 0.225,0.43337 -2.25,0.43337 -2.475,0 -3.4875,-0.19502 -2.25,-0.43337 z"
         id="path3129"
         inkscape:connector-curvature="0" />
      <path
         style="fill:#bec0c1"
         d="m -323.76068,630.70248 c -18.41989,-1.99702 -29.09746,-6.32737 -32.20708,-13.06178 -1.10789,-2.39932 -1.75215,-8.18905 -2.21269,-19.88487 -3.09384,-78.56998 -6.79439,-118.80892 -17.04803,-185.37671 -0.83674,-5.4322 -1.4568,-11.9572 -1.37792,-14.5 0.16272,-5.24507 -1.22338,-13.32933 -4.65046,-27.12329 -1.29814,-5.225 -2.84418,-12.2 -3.43565,-15.5 -0.59146,-3.3 -2.27298,-8.82828 -3.73671,-12.28508 -1.99993,-4.72312 -2.37657,-6.56981 -1.51554,-7.43084 0.73383,-0.73383 6.38768,-1.22622 15.72561,-1.36954 11.91046,-0.18281 14.26521,0.006 12.86134,1.03282 -1.55701,1.13852 -1.46179,1.32103 1.01317,1.94221 10.15556,2.54888 97.68169,4.35523 133.23295,2.74963 23.43134,-1.05823 42.9349,-3.2625 46.6851,-5.2763 2.38038,-1.27823 7.6333,-0.11146 8.3913,1.86386 0.32464,0.84599 0.0466,2.40873 -0.61791,3.47274 -2.74397,4.3938 -7.08713,17.50686 -8.16531,24.65307 -0.63459,4.20609 -1.85894,9.66607 -2.72077,12.13329 -0.94323,2.70023 -1.66834,8.67111 -1.82163,15 -0.14943,6.16972 -1.70273,19.19131 -3.75922,31.51414 -8.05027,48.23867 -13.109,92.95956 -15.61026,138 -2.84941,51.30965 -3.17341,54.51664 -5.82637,57.66951 -4.50374,5.35238 -14.15346,8.70677 -31.20392,10.84694 -11.29009,1.41713 -71.23638,2.09716 -82,0.9302 z m 5.92126,-17.28034 c 2.40919,-2.03524 33.30572,-3.85995 44.57874,-2.63277 4.95,0.53886 10.8,1.41602 13,1.94925 2.2,0.53322 5.84305,0.98023 8.09568,0.99335 l 4.09568,0.0239 0.65026,-12.75 c 0.94786,-18.58496 0.81257,-24.65882 -0.59162,-26.56142 -1.16925,-1.58426 -1.96061,-1.5501 -12.25,0.52878 -9.14234,1.84713 -14.12425,2.20882 -29.5,2.14174 -12.02848,-0.0525 -21.29849,-0.6114 -26.5,-1.59777 -4.4,-0.83439 -8.28491,-1.35298 -8.63313,-1.15242 -1.66782,0.9606 -1.82486,12.15614 -0.34911,24.88902 0.88617,7.64596 1.83375,14.26182 2.10575,14.70191 0.76036,1.23029 3.54137,0.95022 5.29775,-0.53353 z m 53.01896,-61.70234 c 10.71327,-2.14769 21.34863,-5.61276 25.42484,-8.2836 7.16019,-4.69153 12.85773,-16.87778 14.11048,-30.18037 0.31077,-3.3 0.70687,-22.68567 0.88022,-43.07927 0.17334,-20.3936 0.59118,-37.52586 0.92853,-38.0717 0.33734,-0.54584 0.0342,-2.10871 -0.67361,-3.47306 -0.82878,-1.59747 -1.17635,-5.34368 -0.97627,-10.52241 l 0.3107,-8.04177 -51.72256,-0.65705 c -28.4474,-0.36138 -55.09755,-1.06974 -59.22255,-1.57413 -4.125,-0.50439 -8.625,-0.69392 -10,-0.42118 l -2.5,0.49589 0.1172,12.17234 c 0.33059,34.3361 1.48572,97.73005 1.85261,101.67234 0.51058,5.48613 4.75224,16.1135 8.27441,20.7313 4.64851,6.09451 14.86544,9.80945 30.93312,11.24749 13.51541,1.20961 30.12944,0.41756 42.26288,-2.01482 z m -80.91036,-163.71397 c 10.69366,-1.5007 20.37659,-1.7442 67.97014,-1.70927 41.19199,0.0302 57.56242,0.38204 63.5,1.36466 4.4,0.72817 9.77528,1.38484 11.94506,1.45927 l 3.94506,0.13534 3.36515,-11.5 c 1.85083,-6.325 4.25121,-14.65 5.33417,-18.5 1.08297,-3.85 2.72889,-8.45448 3.65761,-10.23219 2.71639,-5.19957 1.26509,-5.78466 -14.04538,-5.66234 -7.26092,0.058 -33.00167,0.44071 -57.20167,0.85044 -30.31804,0.51332 -50.84098,0.37491 -66,-0.44512 -35.02358,-1.89459 -48.61311,-2.14648 -44.75,-0.82946 4.79301,1.63404 3.95845,2.8166 -2,2.83398 -8.33077,0.0243 -8.46248,0.32239 -4.91282,11.11858 1.69371,5.15136 4.25875,14.08781 5.70009,19.85877 1.44134,5.77096 3.0902,11.05847 3.66412,11.75 1.39207,1.67734 5.0052,1.58757 19.82847,-0.49266 z"
         id="path3127"
         inkscape:connector-curvature="0" />
      <path
         style="fill:#bdbec0"
         d="m -322.40459,630.66476 c -17.77337,-1.58616 -28.89767,-5.50796 -32.88499,-11.59338 -1.46272,-2.23239 -1.96697,-5.95633 -2.61219,-19.29098 -0.43976,-9.08852 -1.28177,-26.42457 -1.87114,-38.52457 -1.57103,-32.25411 -3.7241,-60.12761 -6.56578,-85 -2.2512,-19.70408 -3.77392,-30.64477 -9.04478,-64.98622 -0.843,-5.49242 -1.28919,-11.2039 -0.99153,-12.69218 0.64201,-3.21004 -1.42041,-15.55804 -4.80996,-28.79798 -1.34098,-5.23799 -2.94765,-12.38436 -3.57038,-15.88083 -0.62272,-3.49646 -2.30807,-8.75469 -3.7452,-11.68496 -3.85648,-7.8632 -3.20464,-8.26432 12.4498,-7.66126 8.25619,0.31805 13.15876,0.92927 13.97135,1.74186 1.63292,1.63292 9.37997,2.29969 40.31871,3.47012 63.58868,2.40562 132.4013,-0.059 142.53836,-5.10528 2.31133,-1.15058 7.46164,0.32071 7.46164,2.13157 0,0.59639 -1.7307,4.77002 -3.84601,9.27475 -2.11531,4.50473 -4.60922,11.79041 -5.54203,16.19041 -0.9328,4.4 -2.36202,10.61638 -3.17602,13.81418 -2.11002,8.28909 -2.92009,17.26857 -1.6298,18.06601 1.22063,0.75439 1.19081,1.01264 -3.30452,28.61981 -1.83593,11.275 -3.6213,22.75 -3.96747,25.5 -0.34618,2.75 -1.24737,9.05 -2.00266,14 -3.40172,22.29416 -7.81409,67.98699 -9.56002,99 -0.61926,11 -1.69744,28.06218 -2.39594,37.91595 l -1.27001,17.91596 -3.56448,3.26659 c -3.8496,3.52791 -12.62294,6.70525 -23.16465,8.3893 -16.77936,2.68051 -66.45159,3.7746 -87.2203,1.92113 z m 4.42809,-16.91875 c 2.89835,-1.76712 5.73199,-2.07858 24.12051,-2.65126 19.10309,-0.59492 21.84189,-0.45943 32.92457,1.62891 6.64853,1.25279 12.72024,2.03529 13.49269,1.73887 1.99072,-0.76391 3.42629,-34.48608 1.65058,-38.77301 -1.44789,-3.49552 -1.6975,-3.50887 -14.47253,-0.77432 -13.32213,2.85166 -42.21073,3.0442 -56.30303,0.37526 -5.11667,-0.96905 -9.52588,-1.53905 -9.79826,-1.26668 -1.46549,1.46549 -1.44153,15.46121 0.0447,26.09805 0.91188,6.52629 1.41406,12.10989 1.11596,12.40799 -0.74394,0.74394 1.4237,3.22688 2.8131,3.22227 0.62015,-0.002 2.60543,-0.90479 4.41173,-2.00608 z m 52.21582,-61.48821 c 4.675,-0.91954 12.775,-3.02026 18,-4.66826 8.33218,-2.62803 10.0621,-3.58726 14.07259,-7.8032 3.2845,-3.45275 5.17728,-6.64884 6.71916,-11.34571 3.76932,-11.48215 4.38451,-18.6427 3.66718,-42.6848 -0.4479,-15.0119 -0.25409,-27.65847 0.58235,-38 0.68952,-8.525 1.11811,-16.85 0.95244,-18.5 -0.16568,-1.65 -0.34454,-6.66841 -0.39748,-11.15201 l -0.0962,-8.15201 -4,-0.53798 c -2.2,-0.29588 -16.375,-0.29624 -31.5,-7.9e-4 -23.97024,0.46823 -43.33131,-0.0686 -84.73964,-2.34967 l -8.23963,-0.4539 0.44228,2.82318 c 0.56256,3.59089 1.63598,47.20092 2.08918,84.87729 0.34346,28.55299 0.39565,29.18255 3.02604,36.5 4.44284,12.35947 9.09596,16.77206 21.45187,20.343 12.99691,3.7562 41.70835,4.30342 57.9699,1.10486 z m 69.04679,-168.75197 c 1.1574,-3.9875 3.19138,-10.625 4.51995,-14.75 1.32858,-4.125 3.12409,-10.07918 3.99001,-13.23152 0.86593,-3.15233 1.99491,-5.99139 2.50884,-6.30901 0.51392,-0.31763 0.93441,-1.65555 0.93441,-2.97317 0,-3.3242 -3.83145,-3.88379 -21.32697,-3.11483 -33.53032,1.47374 -90.97206,1.80215 -113.67303,0.6499 -40.1929,-2.04008 -52.96478,-2.22045 -49.72639,-0.70224 3.46355,1.62376 2.53357,2.68087 -2.35849,2.68087 -6.90026,0 -7.04514,0.28306 -4.26065,8.32442 1.36659,3.94657 4.01107,12.99219 5.87664,20.10139 1.86556,7.10919 4.07778,13.61165 4.91604,14.44991 1.34599,1.34599 3.01587,1.37005 14.28848,0.20587 7.0204,-0.72504 16.36437,-1.68669 20.76437,-2.137 11.71686,-1.19914 85.49313,-1.11824 103.51707,0.11352 8.51561,0.58196 17.95793,1.66868 20.98293,2.41495 3.025,0.74627 5.82455,1.39512 6.22122,1.4419 0.39667,0.0468 1.66817,-3.17746 2.82557,-7.16496 z"
         id="path3125"
         inkscape:connector-curvature="0" />
      <path
         style="fill:#adaeaf"
         d="m -319.63705,630.7276 c -14.0346,-1.10207 -26.28905,-4.09783 -30.78256,-7.5252 -6.66258,-5.08179 -6.60466,-4.80821 -8.00547,-37.81532 -2.80174,-66.01733 -7.2912,-115.80731 -14.34851,-159.13125 -4.16737,-25.58292 -4.24191,-26.22224 -3.26152,-27.9741 1.14513,-2.04624 -0.6401,-14.28244 -3.72417,-25.5259 -1.13149,-4.125 -2.73953,-11.1 -3.57343,-15.5 -0.83391,-4.4 -2.65724,-10.32741 -4.05185,-13.17202 -1.39461,-2.8446 -2.38726,-6.2196 -2.20589,-7.5 0.27305,-1.92758 0.84575,-2.27789 3.32977,-2.03678 1.65,0.16016 6.73422,0.27652 11.29826,0.25857 5.84532,-0.023 8.99534,0.42411 10.65649,1.51253 4.1692,2.73177 30.65427,3.83409 93.04525,3.87257 58.56627,0.0361 61.36303,-0.0827 84,-3.56885 15.64975,-2.41011 17.7577,-1.31156 12.48228,6.50512 -4.30381,6.37704 -7.19819,15.29204 -10.26875,31.62886 -4.07938,21.70418 -4.00364,21 -2.25884,21 2.20552,0 2.02031,2.52448 -1.90241,25.92926 -9.67012,57.69652 -14.24449,103.1198 -18.2348,181.07074 -0.34213,6.68347 -1.17182,12.65356 -1.98097,14.25427 -3.24158,6.41262 -15.06226,10.69331 -34.88795,12.63415 -15.24085,1.49201 -61.62513,2.15913 -75.32493,1.08335 z m 1.7921,-16.01904 c 9.35782,-4.24549 38.33727,-5.23517 55.62204,-1.89956 5.85161,1.12925 12.51195,1.91675 14.80076,1.75 l 4.16147,-0.30317 0.18461,-10.35839 c 0.10153,-5.69712 0.43268,-11.00489 0.73589,-11.79504 0.30322,-0.79016 0.26778,-5.43086 -0.0787,-10.31267 -0.51991,-7.32453 -0.939,-8.95682 -2.39756,-9.33824 -0.97214,-0.25422 -6.41978,0.40362 -12.10586,1.46188 -22.40677,4.17019 -43.90799,4.26658 -63.16583,0.28318 -4.30512,-0.89049 -8.092,-1.35456 -8.41529,-1.03127 -1.202,1.202 -1.35382,16.35898 -0.2413,24.09055 0.63313,4.4 1.22605,10.15218 1.31761,12.78262 0.24328,6.98925 2.28117,7.98247 9.5822,4.67011 z m 50.34552,-61.91191 c 6.303,-1.07755 15.73859,-3.32974 20.96799,-5.00487 12.65979,-4.05529 18.27203,-8.52295 22.02855,-17.53595 3.59522,-8.62602 3.91481,-12.42496 3.6528,-43.42081 -0.17907,-21.18409 0.15517,-33.80519 1.08788,-41.07919 0.7405,-5.775 1.38128,-16.35 1.42395,-23.5 l 0.0776,-13 -51.5,-0.17072 c -43.86106,-0.1454 -53.59807,-0.44748 -65.64472,-2.03659 -17.33939,-2.28729 -18.12671,-2.06325 -17.68581,5.0325 0.85246,13.71931 2.37519,56.16217 2.9482,82.17481 0.59888,27.18756 0.79288,29.46873 3.10409,36.5 1.3559,4.125 3.56344,8.95247 4.90564,10.7277 3.02163,3.9965 9.14721,7.62023 16.39353,9.698 13.55079,3.88546 40.57629,4.63493 58.24032,1.61512 z m -79.26125,-164.0856 c 22.61273,-2.44445 36.77329,-2.91692 73.5,-2.45232 39.86329,0.50427 62.28133,1.63953 68.4934,3.46854 6.37614,1.87732 6.41772,1.83602 9.78837,-9.72144 6.41621,-22.00028 8.91638,-29.80558 10.20772,-31.86753 0.72938,-1.16465 1.02009,-2.91511 0.64602,-3.88993 -0.64045,-1.66898 -2.38528,-1.72047 -29.90782,-0.88246 -44.93801,1.36827 -103.76592,0.86818 -131.14871,-1.11487 -12.97599,-0.93972 -24.82667,-1.39888 -26.33485,-1.02035 l -2.74215,0.68824 2.37225,1.26959 2.37225,1.26959 -2.37324,0.63521 c -1.30528,0.34936 -3.38574,0.64134 -4.62324,0.64885 -2.84887,0.0173 -2.82002,0.95427 0.29306,9.51799 1.39868,3.84762 3.90314,12.39567 5.56547,18.99567 3.89118,15.44928 4.62702,16.60697 10.15112,15.97064 2.33219,-0.26866 8.51535,-0.95059 13.74035,-1.51542 z"
         id="path3123"
         inkscape:connector-curvature="0" />
      <path
         style="fill:#9d9ea0"
         d="m -327.76068,629.63761 c -15.04048,-1.72215 -25.77797,-6.5374 -28.08016,-12.59263 -0.49939,-1.3135 -1.59161,-17.1034 -2.42715,-35.08866 -3.46552,-74.59642 -6.27102,-103.92467 -15.99417,-167.20049 -0.80289,-5.225 -1.71352,-10.6658 -2.02362,-12.09066 -0.36559,-1.67986 -0.0208,-3.0413 0.98064,-3.87244 2.89135,-2.39961 1.64034,-11.64655 -4.06366,-30.0369 -1.27942,-4.125 -2.78259,-10.4156 -3.34038,-13.97911 -0.55779,-3.56351 -1.83494,-7.61352 -2.83812,-9 -2.56411,-3.54386 -4.52426,-8.70886 -3.7689,-9.93106 0.8744,-1.41481 18.8228,-0.27149 24.45246,1.55762 7.20138,2.33978 50.80337,3.58482 107.60306,3.07258 45.91539,-0.41409 53.54681,-0.70855 65.21928,-2.51649 7.2706,-1.12614 13.68713,-2.33668 14.25895,-2.69008 1.74368,-1.07766 5.02177,0.50956 5.02177,2.43148 0,0.9956 -0.675,2.37037 -1.5,3.05506 -0.825,0.68469 -1.5,1.80969 -1.5,2.5 0,0.69031 -0.70467,1.83994 -1.56594,2.55472 -0.86126,0.71479 -2.22393,2.57204 -3.02815,4.12722 -2.27617,4.40164 -7.08108,24.55062 -8.33119,34.93614 -0.62112,5.16006 -1.36242,10.84442 -1.64733,12.63192 -0.44249,2.77618 -0.21983,3.25 1.5273,3.25 2.64673,0 2.62081,1.04623 -0.47077,19 -9.40503,54.61803 -14.04848,100.67268 -18.35011,182 -0.83492,15.78509 -1.66026,17.65224 -9.48216,21.45122 -11.50116,5.58595 -31.68139,7.60789 -74.04687,7.41904 -16.00763,-0.0713 -32.47978,-0.51617 -36.60478,-0.98848 z m 3.51287,-10.02652 c 2.3626,-5.13321 25.80917,-9.63284 44.63809,-8.56649 5.69197,0.32235 15.93755,1.76896 22.76795,3.21468 13.57361,2.87298 16.55515,2.72818 17.45262,-0.84762 0.326,-1.29887 0.85484,-11.47534 1.1752,-22.61439 l 0.58247,-20.25281 -6.29137,0.73019 c -3.46026,0.40161 -10.35183,1.60203 -15.31461,2.66761 -18.56268,3.98567 -44.21719,3.4729 -65.74035,-1.31398 -3.14442,-0.69934 -6.04938,-0.93927 -6.45548,-0.53318 -1.30391,1.30391 -1.54899,18.93048 -0.36374,26.16073 0.63113,3.85 1.12603,8.125 1.09978,9.5 -0.0986,5.16333 1.1071,11.02767 2.56748,12.48805 2.02209,2.02209 2.71178,1.90967 3.88196,-0.63279 z m 61.48713,-66.84579 c 27.77588,-5.98169 39.51706,-12.67845 42.97153,-24.50947 0.64237,-2.2 1.79852,-15.25 2.56922,-29 1.45939,-26.03666 3.83388,-56.28535 5.49286,-69.97377 0.53151,-4.38557 0.96634,-10.91057 0.96629,-14.5 l -1.1e-4,-6.52623 -57.24989,-0.0755 c -38.62577,-0.051 -58.55115,-0.43633 -61.2499,-1.18464 -16.63045,-4.61129 -20.55065,-5.08865 -22.5,-2.73983 -0.68469,0.825 -2.31741,1.5 -3.62828,1.5 -2.67632,0 -2.66023,-1.72145 -0.28506,30.5 0.52705,7.15 1.40584,28.3 1.95286,47 1.05223,35.97109 2.02551,44.06534 6.52106,54.23211 4.33472,9.80304 16.6406,14.98243 41.93942,17.65175 9.20076,0.97079 33.19007,-0.36945 42.5,-2.37439 z m -12.24484,-158.25947 c -0.45388,-1.37875 -8.71458,-2.22799 -12.47979,-1.28298 -4.44237,1.11496 -1.15791,2.53298 5.86698,2.53298 5.17225,0 6.91582,-0.32958 6.61281,-1.25 z m -5.02599,-3.35417 c -0.3323,-0.33229 -1.1948,-0.36782 -1.91667,-0.079 -0.79773,0.31923 -0.56078,0.55619 0.60417,0.60417 1.05416,0.0434 1.64479,-0.19293 1.3125,-0.52522 z m 84.26775,-6.64583 c 1.14489,-3.9875 3.14369,-10.4 4.44177,-14.25 1.29809,-3.85 3.12001,-9.68046 4.04872,-12.95658 0.92871,-3.27611 2.32397,-6.86374 3.10058,-7.9725 0.7766,-1.10877 1.41201,-3.00241 1.41201,-4.20811 0,-1.99247 -0.66046,-2.25377 -7.25,-2.86838 -3.9875,-0.37192 -10.85,-0.41416 -15.25,-0.0939 -18.62664,1.35588 -106.25176,1.75798 -123.5,0.56673 -26.47366,-1.82841 -48,-2.32892 -48,-1.11606 0,0.56691 0.5069,1.34401 1.12644,1.72691 0.6806,0.42064 -0.0807,1.20375 -1.92357,1.97861 l -3.04999,1.28242 2.95356,7.25776 c 1.62447,3.99177 4.30463,12.69045 5.95593,19.33041 4.37185,17.57944 4.36937,17.57476 9.30895,17.56195 2.27077,-0.006 10.42868,-0.73136 18.12868,-1.61217 10.0662,-1.15147 26.36337,-1.7092 58,-1.9849 44.8429,-0.39077 70.58222,0.58917 80.5,3.0648 3.025,0.75509 6.04344,1.41116 6.70765,1.45794 0.66796,0.047 2.13794,-3.15501 3.28927,-7.16496 z"
         id="path3121"
         inkscape:connector-curvature="0" />
      <path
         style="fill:#8f9091"
         d="m -324.13144,629.72698 c -11.4624,-1.09096 -18.66932,-2.82715 -24.17619,-5.82419 -7.92442,-4.31278 -8.11148,-5.00304 -9.38921,-34.64696 -1.43273,-33.24007 -3.82145,-74.87893 -5.10572,-89 -1.51601,-16.66935 -6.65707,-56.70102 -9.98928,-77.78323 -3.54783,-22.44638 -3.58543,-23.38629 -0.96884,-24.21677 1.1,-0.34913 2,-1.33625 2,-2.1936 0,-2.06883 -3.40815,-17.15046 -6.96163,-30.8064 -3.91802,-15.05682 -4.40367,-18.04806 -2.70079,-16.6348 2.06132,1.71075 6.23877,13.2552 10.17935,28.13082 1.96632,7.42282 3.89191,13.80753 4.2791,14.18825 0.38718,0.38071 5.87897,0.34711 12.20397,-0.0747 12.46336,-0.83114 19.66717,-0.45714 20.61104,1.07007 0.32917,0.53262 -0.34865,1.97659 -1.50627,3.20882 -1.15762,1.23223 -2.10477,2.72577 -2.10477,3.31898 0,1.89077 -2.94242,2.30863 -11.58081,1.64464 -5.53284,-0.42529 -8.41919,-0.29373 -8.41919,0.38374 0,0.56699 0.9,1.26625 2,1.55391 2.72057,0.71144 2.53757,2.70659 -0.25,2.72556 -4.55186,0.031 -4.7679,0.77681 -3.77417,13.02926 0.511,6.30049 1.42754,21.58043 2.03676,33.95543 2.9771,60.47384 3.74976,70.16365 6.28389,78.80541 2.84779,9.71135 5.53483,13.02853 14.05999,17.35722 8.7885,4.46241 19.46839,6.82069 34.58633,7.63719 21.54766,1.16378 36.4184,-0.51225 56.90382,-6.4134 9.36072,-2.69651 19.99168,-8.41811 24.82319,-13.3599 4.68692,-4.79389 6.23734,-14.94676 8.86107,-58.02652 0.82068,-13.475 2.19373,-29.9 3.05121,-36.5 0.85749,-6.6 1.86532,-16.83233 2.23962,-22.73851 0.56796,-8.96169 0.43748,-10.83179 -0.78858,-11.30227 -0.80802,-0.31007 -15.20854,-0.0299 -32.00113,0.62266 -17.94125,0.69718 -38.16101,0.88533 -49.032,0.45626 -10.175,-0.40159 -22.95462,-0.88909 -28.39916,-1.08332 -5.7832,-0.20631 -10.35688,-0.83738 -11,-1.51776 -0.83532,-0.8837 1.43177,-1.04569 9.39916,-0.67156 5.775,0.27117 28.725,0.0311 51,-0.53341 22.275,-0.56455 42.67926,-0.96123 45.3428,-0.88152 2.66354,0.0797 5.58854,-0.29036 6.5,-0.8224 1.19646,-0.69841 -0.0805,-0.97581 -4.5928,-0.99776 -6.17768,-0.0301 -6.25,-0.063 -6.25,-2.84235 0,-4.61323 -4.14688,-6.83252 -15.24245,-8.15731 -5.2556,-0.62751 -12.314,-1.18003 -15.68534,-1.22784 -3.37133,-0.0478 -6.41404,-0.54698 -6.76156,-1.10929 -0.90722,-1.4679 46.2474,0.0367 55.68935,1.77691 4.125,0.76027 8.36647,1.52792 9.42549,1.70589 1.54051,0.25888 2.22201,-0.67611 3.40851,-4.67642 3.0067,-10.13707 11.28437,-34.88688 12.18045,-36.41895 1.54489,-2.64136 1.10723,-0.17712 -2.5609,14.41895 -3.66895,14.59936 -6.24157,32.00408 -5.15074,34.84672 0.34893,0.9093 1.54854,1.65328 2.66581,1.65328 1.11726,0 2.03138,0.23987 2.03138,0.53304 0,0.29317 -1.54001,9.85567 -3.42223,21.25 -8.08641,48.95219 -13.04887,93.60186 -15.58399,140.21696 -0.61318,11.275 -1.47797,27.28062 -1.92176,35.56804 -0.44379,8.28742 -1.32259,16.03163 -1.95288,17.20935 -2.71493,5.07289 -11.05376,9.00923 -23.61914,11.14941 -16.20149,2.7595 -70.51782,3.98147 -90.87076,2.04435 z m 6.94617,-6.28059 c -3.25852,-1.20481 -6.11105,-2.76066 -6.33896,-3.45744 -0.62052,-1.89716 7.5697,-5.12023 17.52598,-6.89693 14.67429,-2.61864 31.57796,-2.24993 46.23757,1.00855 6.875,1.52815 14.075,3.11609 16,3.52876 2.46521,0.52848 3.45652,1.2639 3.35294,2.48743 -0.30888,3.64863 2.00082,0.81481 3.18722,-3.91047 1.5035,-5.98822 3.03908,-45.97444 1.79507,-46.74328 -0.48175,-0.29773 -8.74176,1.07175 -18.35557,3.0433 -16.36746,3.35655 -18.62497,3.58104 -35.47966,3.52816 -14.87876,-0.0467 -19.73402,-0.44597 -28,-2.30266 -5.5,-1.2354 -11.62074,-2.45128 -13.60164,-2.70197 l -3.60163,-0.45578 -0.69317,5.84088 c -0.80019,6.74277 1.2383,36.25454 2.62777,38.0429 0.51365,0.66111 0.66022,2.06432 0.32572,3.11824 -0.43003,1.35489 0.12977,2.39975 1.91098,3.56684 3.05127,1.99927 11.90967,4.47891 16.03197,4.48766 2.43624,0.005 1.88664,-0.40529 -2.92459,-2.18419 z M -385.03609,345.004 c -2.01338,-2.22476 -3.94188,-7.23952 -3.3636,-8.74651 0.66469,-1.73216 16.94621,-0.60483 23.05879,1.59658 l 5.08022,1.82961 -4,0.0448 c -2.2,0.0246 -6.3653,0.32887 -9.25623,0.6761 -4.15476,0.49904 -5.03054,0.90328 -4.17924,1.92904 0.82038,0.98849 0.35716,1.66994 -1.94411,2.85997 -3.7176,1.92244 -3.47684,1.9309 -5.39583,-0.18956 z m 203.24238,-0.83505 -1.01413,-2.66737 -20.22642,0.6371 c -67.87217,2.13785 -137.11731,1.47555 -143.94295,-1.37675 -1.48172,-0.61918 3.86099,-0.7 15.21653,-0.23016 9.625,0.39823 40.675,0.67554 69,0.61625 50.3251,-0.10536 51.89783,-0.1681 68.93836,-2.75 9.5911,-1.45321 18.04272,-2.64219 18.78139,-2.64219 2.3969,0 2.6678,3.04025 0.41171,4.62047 -1.1723,0.82112 -2.13146,2.12659 -2.13146,2.90105 0,0.77446 -0.90425,1.89205 -2.00945,2.48354 -1.72073,0.92091 -2.15516,0.69217 -3.02358,-1.59194 z"
         id="path3119"
         inkscape:connector-curvature="0" />
      <path
         style="fill:#7e8082"
         d="m -319.26068,629.73698 c -12.5243,-0.85105 -23.66983,-2.97328 -28.28958,-5.38666 -4.74297,-2.47775 -8.33974,-7.07887 -8.78094,-11.23291 -0.22557,-2.12387 -0.86873,-15.56158 -1.42923,-29.86158 -2.79013,-71.18406 -5.78111,-103.34312 -15.39244,-165.5 -0.80794,-5.225 -1.78111,-11.40239 -2.16261,-13.72753 -0.64408,-3.92554 -0.50617,-4.29879 1.93059,-5.22524 3.15767,-1.20055 3.18371,-1.80712 0.57621,-13.42345 -1.1264,-5.01808 -2.74277,-12.27378 -3.59195,-16.12378 -0.84917,-3.85 -1.77578,-7.84385 -2.05913,-8.87523 -0.32833,-1.19508 -0.11847,-1.63005 0.57858,-1.19924 1.11391,0.68843 3.30418,7.49931 7.19598,22.37668 1.19449,4.56621 2.71521,8.84562 3.37938,9.50979 0.83607,0.83607 3.64382,1.04534 9.12636,0.68021 4.35533,-0.29006 9.38128,-0.35773 11.16878,-0.15039 7.40446,0.8589 1.19055,5.66727 -8.86254,6.85791 -5.07239,0.60075 -6.05692,1.54643 -3.24706,3.1189 2.2136,1.2388 0.8332,3.18137 -2.26069,3.18137 -2.3648,0 -2.47157,0.23346 -1.94356,4.25 1.26037,9.5876 3.50736,38.18388 4.06632,51.75 1.98853,48.26148 4.77378,69.90677 10.19659,79.24185 3.98155,6.85402 17.54822,12.69326 35.71343,15.37143 27.70766,4.08506 65.51372,-1.48492 84.08751,-12.38864 7.65809,-4.49567 13.21211,-9.76251 14.40731,-13.66235 1.02607,-3.34802 2.70675,-18.18985 3.57409,-31.56229 1.07985,-16.64894 4.60813,-49.29929 7.56438,-70 0.432,-3.025 0.82343,-8.97463 0.86984,-13.22141 l 0.0844,-7.72141 -3.25,-0.85007 -3.25,-0.85007 2.45211,-1.32187 c 2.40407,-1.29597 2.33739,-1.36313 -3.40417,-3.42852 -6.79373,-2.44388 -9.03912,-4.98693 -6.24033,-7.06759 1.63815,-1.21782 1.4209,-1.40913 -2.31738,-2.04071 -2.26875,-0.3833 -3.89992,-0.92199 -3.62482,-1.19709 0.85452,-0.85453 20.88857,1.66464 22.25466,2.79839 2.1632,1.79529 3.1542,0.24727 6.49013,-10.13804 1.76302,-5.48859 3.35861,-9.82613 3.54576,-9.63899 0.18714,0.18715 -0.61285,6.02598 -1.77775,12.97518 -1.1649,6.94921 -1.85317,13.32506 -1.52949,14.16856 0.32368,0.8435 1.72763,1.53364 3.1199,1.53364 3.22744,0 3.23077,0.79321 0.0807,19.18871 -7.50168,43.8072 -13.1293,94.2388 -15.60142,139.81129 -2.48327,45.778 -3.43239,55.77281 -5.51492,58.07551 -4.46571,4.93785 -15.51547,8.23411 -32.93295,9.82425 -15.39764,1.40574 -60.62906,2.05791 -75,1.08139 z m 18.3464,-2.46808 c -0.26781,-0.26782 -4.92867,-1.61368 -10.35747,-2.9908 -14.06902,-3.5689 -14.7905,-4.9934 -4.22807,-8.34794 16.80542,-5.33725 39.60825,-5.50029 60.23914,-0.4307 16.31727,4.00961 16.07983,4.75862 -3,9.46382 -4.51919,1.11445 -4.71151,1.26982 -2,1.61566 3.76392,0.48007 15.77292,-1.58204 20.78836,-3.56965 2.60568,-1.03262 4.20832,-2.50643 5.13358,-4.72087 1.68211,-4.02587 3.18169,-47.29398 1.71397,-49.45403 -0.83103,-1.22301 -1.85016,-1.19599 -7.30088,0.19359 -12.30198,3.13621 -27.95154,5.75558 -37.08863,6.20777 -5.08552,0.25168 -8.45339,0.2126 -7.48416,-0.0868 2.93637,-0.90723 0.87416,-2.39312 -3.32126,-2.39312 -3.81823,0 -5.24214,1.26102 -2.69098,2.38314 3.92247,1.72528 -23.06769,-0.70753 -32.09214,-2.89269 -5.6569,-1.36975 -11.44752,-2.49045 -12.86805,-2.49045 l -2.58277,0 0.71932,17.25 c 1.06813,25.61447 1.13935,26.64904 1.88596,27.39565 0.37822,0.37823 0.68768,1.7443 0.68768,3.03572 0,3.18933 4.72254,5.91424 13.49032,7.78391 9.21377,1.96477 21.51005,3.20176 20.35608,2.04779 z m 20.6536,-9.51307 c 1.41371,-0.60749 0.16785,-0.88003 -4.25,-0.92971 -3.54686,-0.0399 -6.25,0.36221 -6.25,0.92971 0,1.20603 7.69342,1.20603 10.5,0 z m -15.04748,-210.92318 c 0.31522,-0.51003 8.95656,-0.93121 19.30902,-0.94112 10.30615,-0.01 26.27596,-0.33181 35.48846,-0.71543 10.87721,-0.45293 16.75,-0.34971 16.75,0.29439 0,0.54553 -3.44289,1.2829 -7.65088,1.6386 -11.95491,1.01056 -64.55137,0.78301 -63.8966,-0.27644 z m 80.35998,-1.75993 c 0.72187,-0.28887 1.58437,-0.25335 1.91667,0.079 0.33229,0.33229 -0.25834,0.56864 -1.3125,0.52522 -1.16495,-0.048 -1.4019,-0.28494 -0.60417,-0.60417 z m -171.36353,-63.78477 c -0.79693,-1.90734 -1.44897,-3.91825 -1.44897,-4.4687 0,-0.9475 13.32342,-0.57836 18.75,0.51949 4.6075,0.93214 2.03275,2.41709 -4.19098,2.41709 -6.07015,0 -8.87456,1.06891 -6.55902,2.5 1.6505,1.02007 0.10543,2.5 -2.61004,2.5 -1.8984,0 -2.83717,-0.82607 -3.94099,-3.46788 z m 205.55103,1.96788 c 0,-1.22972 -1.75681,-1.50276 -9.75,-1.51531 -5.3625,-0.008 -10.31585,-0.37455 -11.00744,-0.81361 -0.72966,-0.46324 4.50823,-1.68747 12.4794,-2.91676 16.12055,-2.48606 18.06853,-1.97814 12.76268,3.32771 -3.81031,3.81031 -4.48464,4.0987 -4.48464,1.91797 z m -117.3194,-1.24899 c 13.29933,-0.15744 35.34933,-0.15759 49,-3.4e-4 13.65067,0.15725 2.7694,0.28606 -24.1806,0.28625 -26.95,1.8e-4 -38.11873,-0.12848 -24.8194,-0.28591 z m -34.4306,-0.96726 c 1.5125,-0.22913 3.9875,-0.22913 5.5,0 1.5125,0.22912 0.275,0.41659 -2.75,0.41659 -3.025,0 -4.2625,-0.18747 -2.75,-0.41659 z"
         id="path3117"
         inkscape:connector-curvature="0" />
      <path
         style="fill:#7d7d81"
         d="m -329.76068,628.69367 c -15.63907,-1.98219 -25.18741,-7.39596 -26.36202,-14.9469 -0.29867,-1.92002 -1.01708,-16.31594 -1.59646,-31.99094 -1.10608,-29.9245 -2.42314,-54.61689 -4.09136,-76.70552 -1.59495,-21.11834 -8.65079,-74.58562 -12.95847,-98.19577 -1.02566,-5.62159 -0.221,-8.09871 2.63076,-8.09871 1.89371,0 1.74904,-3.55542 -0.64678,-15.89536 -1.11005,-5.71745 -1.84898,-10.56466 -1.64207,-10.77158 0.20692,-0.20691 1.4048,3.346 2.66196,7.89536 3.51589,12.72316 3.27268,12.50394 13.28948,11.97819 4.70114,-0.24674 9.26238,3.6e-4 10.2544,0.55552 1.53205,0.85738 1.10382,1.30209 -3.00343,3.11891 -2.63463,1.16543 -5.52054,2.12585 -6.41313,2.13427 -0.89258,0.008 -2.29569,0.44066 -3.11801,0.96052 -1.28867,0.81468 -1.23305,1.13683 0.40278,2.33298 2.35006,1.71841 1.29897,3.69119 -1.96667,3.69119 -2.86545,0 -2.78939,-1.36618 -0.97433,17.5 0.7937,8.25 1.9161,23.1 2.49421,33 2.18758,37.4617 3.14372,51.25305 4.11202,59.31167 1.38975,11.5662 5.31025,23.41412 9.22791,27.88717 9.31164,10.63171 41.57097,17.25304 69.7293,14.31215 14.06962,-1.46944 36.19174,-7.04085 44.62813,-11.2395 7.90046,-3.93192 15.17376,-9.39844 17.91295,-13.46311 2.152,-3.19336 3.57073,-12.41845 4.96871,-32.30838 0.94864,-13.49689 6.36577,-61.64505 7.45766,-66.28458 0.54564,-2.31848 1.28728,-9.03753 1.6481,-14.93122 0.51496,-8.41164 0.35805,-11.07483 -0.72974,-12.38553 -0.76217,-0.91836 -1.39254,-2.36644 -1.40083,-3.21797 -0.008,-0.86531 -1.33835,-1.90896 -3.01507,-2.36604 -1.65,-0.44981 -4.125,-1.71712 -5.5,-2.81624 l -2.5,-1.99842 2.5,-1.97776 c 3.02513,-2.3932 8.71647,-2.60956 11.80161,-0.44864 2.19607,1.53818 2.30104,1.4538 4.6649,-3.75 2.68889,-5.91933 3.1455,-4.50158 1.46974,4.56346 -1.20432,6.51476 -0.30634,8.61294 3.68619,8.61294 1.30766,0 2.37664,0.5625 2.37551,1.25 -0.001,0.6875 -1.13521,7.775 -2.52019,15.75 -1.38498,7.975 -3.42384,21.25 -4.53081,29.5 -1.10697,8.25 -2.20805,15.675 -2.44684,16.5 -2.37555,8.20708 -8.2982,80.77309 -11.18158,137 -0.32966,6.42841 -1.18076,12.67019 -1.92989,14.15346 -3.08119,6.10065 -15.10498,10.02457 -35.96576,11.73728 -14.96283,1.22848 -73.8398,1.26172 -83.42288,0.0471 z m 24,-3.42558 c -17.57244,-3.87585 -19.5106,-5.46055 -10.68588,-8.73709 15.57793,-5.78396 39.68327,-6.13826 60.0809,-0.88306 6.54227,1.68553 12.12977,3.29934 12.41667,3.58625 1.28923,1.28923 -1.07817,2.06889 -17.81169,5.86596 -9.38506,2.1296 -9.44038,2.15946 -4.57232,2.46773 6.58372,0.41692 23.16541,-2.28005 28.75837,-4.67747 3.95176,-1.69393 4.63012,-2.45419 5.6043,-6.28089 2.40272,-9.43818 3.4984,-46.96494 1.43159,-49.03175 -0.84095,-0.84095 -3.25657,-0.57835 -9.42633,1.02474 -9.80134,2.54669 -26.9092,5.75775 -35.16116,6.59958 -4.99253,0.50931 -5.77861,0.37179 -5.28139,-0.92394 0.50131,-1.30638 -0.98012,-1.52232 -10.44346,-1.52232 -8.11341,0 -10.83811,0.30666 -10.31046,1.16041 1.16307,1.88189 -13.81258,0.25321 -24.09914,-2.62091 -13.71694,-3.83259 -13.09917,-4.11132 -13.76467,6.2105 -0.31029,4.8125 -0.14949,12.8 0.35733,17.75 0.50682,4.95 1.08087,12.02866 1.27567,15.73036 0.1948,3.7017 0.94901,7.44709 1.67603,8.32309 3.84628,4.63448 18.08887,8.26403 32.45564,8.27091 l 8,0.004 -10.5,-2.31593 z m 27.91698,-7.53007 c 2.45941,-1.2993 -8.1643,-2.21886 -11.40404,-0.98711 -2.25864,0.85873 -2.61615,1.3231 -1.53371,1.99209 1.51498,0.93631 10.59875,0.2307 12.93775,-1.00498 z M -290.01068,407.0501 c 1.2375,-0.23836 3.2625,-0.23836 4.5,0 1.2375,0.23835 0.225,0.43337 -2.25,0.43337 -2.475,0 -3.4875,-0.19502 -2.25,-0.43337 z m 26,-0.0177 c 1.7875,-0.22183 4.7125,-0.22183 6.5,0 1.7875,0.22182 0.325,0.40332 -3.25,0.40332 -3.575,0 -5.0375,-0.1815 -3.25,-0.40332 z m 24.53017,-1.01288 c 2.6291,-0.20668 6.6791,-0.20418 9,0.005 2.32091,0.20972 0.16983,0.37882 -4.78017,0.37578 -4.95,-0.003 -6.84892,-0.17464 -4.21983,-0.38132 z M -385.7081,341.00583 c -0.57278,-2.0625 -1.04394,-3.98971 -1.047,-4.28269 -0.006,-0.60915 13.32871,-0.12838 16.78532,0.60516 4.36728,0.9268 1.0599,2.42753 -5.34992,2.42753 -5.92378,0 -7.9609,0.94261 -5.42467,2.51008 1.4719,0.90968 0.18462,2.48992 -2.02832,2.48992 -1.33679,0 -2.20036,-1.10321 -2.93541,-3.75 z m 190.44742,-0.17568 c -4.80707,-0.58788 -4.53697,-0.68733 7,-2.57747 14.52112,-2.37904 13.90255,-2.36062 14.2753,-0.42513 0.66732,3.46513 -7.76365,4.655 -21.2753,3.0026 z"
         id="path3115"
         inkscape:connector-curvature="0" />
      <path
         style="fill:#6e6f70"
         d="m -328.73975,628.63046 c -13.19368,-1.52752 -22.15154,-5.09194 -25.45071,-10.12711 -1.61569,-2.46587 -1.63958,-2.81534 -5.07545,-74.24752 -1.69574,-35.25458 -3.34573,-55.01262 -6.54668,-78.39445 -3.00908,-21.98018 -8.93991,-61.37595 -9.53003,-63.30356 -0.35839,-1.17066 0.43669,-2.19264 2.5601,-3.29069 2.98179,-1.54195 3.06133,-1.75868 2.49622,-6.802 -0.55238,-4.92974 -0.50489,-5.07514 0.88502,-2.7093 1.33471,2.27187 2.22939,2.54563 9.80467,3 l 8.33593,0.5 -4.21016,2.25 c -2.31559,1.2375 -4.90309,2.25 -5.75,2.25 -1.9574,0 -1.9759,1.39321 -0.0398,3 2.24051,1.85946 1.84079,2.68184 -1.6421,3.37842 l -3.1421,0.62842 0.66746,6.24658 c 1.72892,16.18044 3.65856,41.11158 4.6243,59.74658 2.17327,41.9354 5.25884,61.14898 11.25228,70.06698 4.62791,6.88614 17.72281,12.61317 35.521,15.53504 13.23276,2.17238 39.93712,1.39146 52.66516,-1.54009 15.72554,-3.62195 24.83217,-6.88547 33.78942,-12.10901 14.71949,-8.58388 15.87392,-10.98528 17.76449,-36.95292 1.35313,-18.58563 5.41136,-54.92019 7.93004,-71 2.77275,-17.70184 3.27878,-27.58188 1.48878,-29.06745 -0.7803,-0.64759 -1.41873,-1.97356 -1.41873,-2.94659 0,-0.98861 -0.99268,-2.03625 -2.25,-2.37458 -1.2375,-0.33298 -3.36342,-1.47232 -4.72426,-2.53186 -2.43302,-1.89434 -2.44294,-1.96104 -0.59501,-4.00298 2.19318,-2.42344 6.78035,-2.73206 8.56927,-0.57654 1.85369,2.23356 3.92836,1.81862 5,-1 0.52277,-1.375 1.07854,-2.5 1.23504,-2.5 0.15649,0 0.28013,2.8125 0.27475,6.25 l -0.01,6.25 3.25,0.31336 c 1.7875,0.17235 3.25,0.60789 3.25,0.96788 0,0.35999 -1.54938,9.89398 -3.44306,21.18665 -6.01526,35.87094 -7.57117,47.86439 -11.09206,85.50122 -2.36215,25.25034 -4.80879,61.70683 -6.07565,90.53089 -0.30217,6.875 -0.99152,13.6737 -1.5319,15.10822 -2.69264,7.14799 -16.43201,11.5829 -38.35733,12.38131 l -13,0.47339 7.57902,-1.3608 c 9.7363,-1.74813 17.8543,-4.13325 20.54418,-6.036 1.16776,-0.82604 2.60802,-3.42885 3.20059,-5.78401 1.63585,-6.50171 2.76096,-48.30268 1.32401,-49.19076 -0.63331,-0.39141 -4.41315,0.17394 -8.39964,1.25634 -7.22719,1.9623 -23.29942,5.35479 -31.64863,6.68033 -3.80087,0.60343 -4.31612,0.47879 -3.78139,-0.9147 0.82388,-2.14698 -1.67342,-2.11519 -3.83746,0.0489 -1.2794,1.2794 -1.84034,1.37391 -2.43582,0.41041 -0.53028,-0.85801 -4.51247,-1.35022 -12.65925,-1.56473 -12.1656,-0.32034 -14.6253,0.0205 -12.24237,1.6963 2.52148,1.77326 -11.31335,-0.1557 -23.11447,-3.2228 -6.30897,-1.63979 -11.78107,-2.9814 -12.16002,-2.9814 -1.40928,0 -2.04825,17.09968 -1.0136,27.12519 0.58888,5.70615 1.26258,13.4944 1.4971,17.30722 0.45979,7.47516 1.12276,8.47243 7.45259,11.21057 4.29889,1.85961 11.13901,3.19192 24.69537,4.81014 l 11,1.31307 -13,-0.0128 c -7.15,-0.007 -16.36558,-0.40249 -20.47907,-0.87873 z m 26.97907,-2.90344 c -11.84836,-2.10709 -18.20109,-4.07448 -18.78179,-5.81656 -0.58329,-1.74987 5.78345,-4.05892 17.1787,-6.23026 11.01627,-2.09913 24.26573,-2.48171 32.7166,-0.9447 8.04265,1.46277 25.88649,6.23893 25.88649,6.92889 0,0.94464 -6.79531,3.07647 -15,4.70583 -19.85624,3.94323 -26.28795,4.151 -42,1.3568 z m 21,-3.97119 c 0,-0.55 -0.45,-1 -1,-1 -0.55,0 -1,0.45 -1,1 0,0.55 0.45,1 1,1 0.55,0 1,-0.45 1,-1 z m 3.26452,-3.63141 c 3.58001,-1.03997 0.43437,-2.36814 -5.57354,-2.35328 -6.63513,0.0164 -9.40474,1.02079 -8.1982,2.97301 0.71284,1.15339 8.94286,0.78304 13.77174,-0.61973 z M -384.76068,342.75583 c 0,-0.55 0.64844,-1 1.44098,-1 0.79254,0 1.7191,0.45 2.05902,1 0.33992,0.55 -0.30852,1 -1.44098,1 -1.13246,0 -2.05902,-0.45 -2.05902,-1 z m 192,-2.01241 -5.5,-0.51242 6.5,-1.2113 c 11.32982,-2.11135 18,-2.64375 18,-1.43674 0,2.98071 -7.51392,4.23057 -19,3.16046 z m -191.75,-1.64987 c -3.18309,-1.28441 -0.62915,-2.33772 5.66821,-2.33772 7.83633,0 11.05611,0.767 8.91564,2.12385 -1.41884,0.8994 -12.48283,1.06165 -14.58385,0.21387 z"
         id="path3113"
         inkscape:connector-curvature="0" />
      <path
         style="fill:#505050"
         d="m -328.76068,628.10438 c -12.02622,-1.13864 -23.06959,-5.60816 -25.45014,-10.30028 -0.74437,-1.46716 -1.56434,-8.27567 -1.93275,-16.04827 -0.35194,-7.425 -1.34098,-28.07129 -2.19786,-45.88064 -0.93556,-19.4445 -1.19454,-32.74407 -0.64827,-33.29034 0.54628,-0.54628 1.97868,2.44609 3.58546,7.49025 1.47166,4.61998 3.906,9.99663 5.40965,11.9481 13.06378,16.95451 58.22124,23.53894 93.90201,13.69188 15.25061,-4.20881 18.82571,-5.61987 27.3319,-10.78761 19.45101,-11.81701 19.08259,-11.01169 22.49568,-49.17164 2.30097,-25.72589 4.93533,-47.11695 7.08125,-57.5 0.7957,-3.85 2.10677,-12.76488 2.91349,-19.81085 0.80672,-7.04597 1.72795,-13.23347 2.04719,-13.75 0.31923,-0.51653 1.71842,-0.93915 3.1093,-0.93915 2.91685,0 2.98926,-1.3551 -1.17564,22 -1.32409,7.425 -2.86544,17.56752 -3.42521,22.53893 -0.55978,4.97142 -1.48667,11.49642 -2.05977,14.5 -3.34959,17.55505 -8.66777,84.36661 -10.54387,132.46107 -0.30037,7.7 -0.7657,15.44925 -1.03406,17.22056 -0.77539,5.1178 -4.70021,8.88083 -11.68654,11.20477 -5.98376,1.99046 -22.50256,4.62726 -23.39535,3.73448 -0.238,-0.238 2.687,-1.38032 6.5,-2.53848 11.426,-3.47055 11.06417,-2.79789 12.70935,-23.62691 1.84685,-23.38217 1.90716,-37.3872 0.16388,-38.05616 -0.71516,-0.27443 -4.42766,0.68698 -8.25,2.13648 -5.80304,2.20062 -27.54928,7.38769 -30.9497,7.38236 -0.55,-8.7e-4 0.125,-0.88156 1.5,-1.9571 l 2.5,-1.95553 -2.5,0.0134 c -1.375,0.007 -5.16303,0.64932 -8.41786,1.42658 -3.66592,0.87543 -8.42256,1.20818 -12.5,0.87444 -8.2142,-0.67235 -9.116,-1.32874 -1.99881,-1.45488 2.97917,-0.0528 7.66667,-0.67434 10.41667,-1.3812 4.62959,-1.19 3.63319,-1.29401 -13.45,-1.40401 -12.81236,-0.0825 -18.13115,0.20005 -17.40653,0.92468 0.5739,0.5739 3.9264,1.4533 7.45,1.95422 5.95406,0.84644 5.71241,0.88401 -3.42149,0.53203 -8.1984,-0.31594 -9.73738,-0.14253 -9.28139,1.04577 0.88478,2.30568 -3.8433,1.75514 -17.81702,-2.07463 -7.02203,-1.92453 -13.2327,-3.21153 -13.80147,-2.86001 -0.69411,0.42898 -0.79639,6.59391 -0.31107,18.74914 0.39769,9.96051 0.81846,20.58501 0.93503,23.61001 0.40694,10.55972 4.04362,14.24994 17.36835,17.62408 7.64674,1.93634 8.17469,2.20232 4.23559,2.13395 -2.475,-0.043 -6.075,-0.22722 -8,-0.40948 z m 35,-2.50895 c -11.43074,-0.80626 -24.13162,-3.64112 -24.73944,-5.5219 -1.06029,-3.28084 18.059,-7.32065 34.59952,-7.31069 17.23196,0.0104 35.26034,4.73312 32.19007,8.43257 -0.5972,0.71957 -6.12662,2.015 -12.31693,2.88559 -15.91284,2.23795 -17.98151,2.34331 -29.73322,1.51443 z m 14.69216,-3.77043 c 0.75831,-2.89976 3.33775,-3.3897 5.77775,-1.09744 2.50337,2.3518 3.53009,2.56014 3.53009,0.71633 0,-1.97629 -5.6278,-5.73597 -9.27745,-6.19786 -1.77106,-0.22414 -5.79211,-0.1387 -8.93566,0.18986 l -5.71556,0.5974 0.12637,3.36127 c 0.0781,2.07725 0.63747,3.36127 1.46433,3.36127 0.73588,0 1.33797,-0.5051 1.33797,-1.12244 0,-0.72969 0.58178,-0.64221 1.66262,0.25 1.29619,1.06996 1.75534,1.09695 2.08333,0.12244 0.5824,-1.73039 2.91769,-1.56892 3.61568,0.25 0.82264,2.14378 3.73297,1.85425 4.33053,-0.43083 z m -85.54233,-154.0965 c -0.0824,-0.29003 -1.05121,-7.04003 -2.15289,-15 -1.88283,-13.60398 -4.79082,-32.15884 -7.08914,-45.23334 -1.09705,-6.24082 -0.72364,-7.73933 1.92853,-7.73933 0.94507,0 2.90291,-1.35 4.35076,-3 1.44785,-1.65 3.34805,-3 4.22268,-3 2.0145,0 2.07864,1.87535 0.0902,2.63837 -1.92145,0.73733 -1.90549,2.25609 0.0464,4.41289 1.42573,1.57542 1.26967,1.76067 -2,2.37406 -4.12427,0.77372 -4.00076,-0.1495 -2.12855,15.91152 2.09385,17.96239 3.89314,42.73087 3.3535,46.16316 -0.25942,1.65 -0.5391,2.7627 -0.62151,2.47267 z m 165.51684,-63.63934 c -0.36667,-0.36666 -0.66667,-1.49166 -0.66667,-2.5 0,-1.00833 -0.43844,-1.83333 -0.97432,-1.83333 -0.53588,0 -1.67243,-1.35 -2.52568,-3 -1.25213,-2.42135 -1.29071,-3 -0.19999,-3 2.10098,0 5.4116,4.15739 6.17148,7.75 0.63463,3.00041 -0.19716,4.19099 -1.80482,2.58333 z m 9.33333,-64.16803 c 0,-1.15016 13.29178,-3.11565 14.36989,-2.12491 0.47844,0.43967 -0.87156,1.28293 -3,1.87392 -4.60458,1.27853 -11.36989,1.42788 -11.36989,0.25099 z"
         id="path3111"
         inkscape:connector-curvature="0" />
      <path
         style="fill:#313130"
         d="m -338.62894,625.67822 c -5.87454,-1.1545 -12.92323,-4.66836 -14.61688,-7.28669 -1.3987,-2.16235 -2.7899,-22.03693 -3.99944,-57.1357 -0.30326,-8.8 -0.80892,-19.825 -1.1237,-24.5 -0.64757,-9.61748 0.0722,-9.6322 3.68173,-0.0753 2.904,7.68887 9.66232,15.10877 18.16829,19.94681 3.15796,1.79619 7.06085,4.58489 8.67308,6.19713 1.61223,1.61226 3.64095,2.93136 4.50826,2.93136 0.86731,0 1.57692,0.48032 1.57692,1.06739 0,0.61231 -0.85269,0.79675 -2,0.43261 -1.16226,-0.36889 -2,-0.1797 -2,0.45166 0,1.29878 -2.79251,0.72859 -12.57518,-2.56768 -3.89135,-1.31119 -7.66286,-2.38398 -8.38113,-2.38398 -1.05328,0 -1.17241,3.72443 -0.61569,19.25 1.0088,28.13363 0.75899,33.28862 -1.44073,29.7294 -0.6444,-1.04267 -1.21251,-1.15416 -1.97841,-0.38826 -1.47187,1.47188 -0.18431,4.40886 1.93283,4.40886 0.95024,0 2.91852,1.33648 4.37396,2.96995 1.45543,1.63348 4.45481,3.89262 6.66529,5.02033 2.21048,1.1277 4.01906,2.26622 4.01906,2.53004 0,0.26383 -0.1125,0.43038 -0.25,0.37011 -0.1375,-0.0603 -2.21572,-0.49588 -4.61826,-0.96804 z m 32.4474,-2.82354 c -8.51227,-1.74528 -10.13814,-3.06749 -6.05798,-4.92654 3.60737,-1.64362 4.29497,-1.48609 4.65929,1.06747 0.46314,3.24623 3.81955,3.63334 3.81955,0.44053 0,-2.4922 1.6215,-3.68031 5.02277,-3.68031 2.24064,0 2.52268,0.43663 3.3912,5.25 0.78957,4.37579 1.17176,4.31058 -10.83483,1.84885 z m 79.10704,-0.0491 c 1.7524,-1.06851 3.60942,-2.75433 4.12672,-3.74626 1.15109,-2.20725 3.15442,-30.01884 3.46149,-48.05492 0.17296,-10.15885 -0.0705,-13.25109 -1.04329,-13.25 -0.69789,7.7e-4 -3.72367,1.31135 -6.72395,2.91239 -6.52632,3.48264 -13.29756,5.70349 -19.75646,6.47976 -2.61212,0.31395 -5.91917,0.86443 -7.34899,1.22329 -2.11509,0.53085 -2.53462,0.33009 -2.25069,-1.07705 0.35469,-1.75777 4.72944,-3.76344 12.84899,-5.89081 3.47879,-0.91146 6.42895,-3.02279 13,-9.30368 4.675,-4.46856 11.08213,-10.24936 14.23806,-12.84622 3.15594,-2.59687 6.75594,-6.35838 8,-8.35892 2.10337,-3.38237 2.28502,-3.47447 2.59112,-1.31387 0.18105,1.27791 -0.36725,4.06401 -1.21843,6.19133 -1.21515,3.03695 -1.31315,4.54043 -0.45622,6.99862 0.79553,2.28207 0.75626,9.1428 -0.14485,25.30866 -0.67993,12.19785 -1.52276,27.88691 -1.87296,34.86459 -0.6108,12.17015 -0.75207,12.80698 -3.46993,15.64157 -1.77481,1.85103 -4.97467,3.55576 -8.56561,4.56332 -7.5981,2.13192 -9.2962,2.02474 -5.415,-0.3418 z m -49.68618,-0.60877 c 0,-0.85746 0.45734,-1.27636 1.01631,-0.9309 0.55897,0.34546 0.75742,1.04702 0.44098,1.55902 -0.85723,1.38704 -1.45729,1.12841 -1.45729,-0.62812 z m 20,-1.44098 c 0,-0.55 0.675,-1 1.5,-1 0.825,0 1.5,0.45 1.5,1 0,0.55 -0.675,1 -1.5,1 -0.825,0 -1.5,-0.45 -1.5,-1 z m -14.25,-3.0801 c -0.9625,-0.5606 -1.75,-1.44692 -1.75,-1.96959 0,-1.1197 4.64766,-1.14274 7.4777,-0.0371 1.93287,0.75516 1.92869,0.7989 -0.18426,1.92972 -2.5996,1.39126 -3.27089,1.40058 -5.54344,0.0769 z M -372.28545,401.79591 c 0.35354,-0.57204 1.81625,-1.04008 3.25045,-1.04008 3.13458,0 2.77194,0.47899 -1.05947,1.3994 -1.85868,0.44651 -2.6126,0.32287 -2.19098,-0.35932 z"
         id="path3109"
         inkscape:connector-curvature="0" />
      <path
         style="fill:#131312"
         d="m -351.01068,619.67573 c -0.9625,-0.5606 -1.75,-1.67573 -1.75,-2.47806 0,-1.20372 0.34632,-1.24251 1.98069,-0.22183 2.02072,1.26196 3.53829,3.80461 2.23793,3.74958 -0.39524,-0.0167 -1.50612,-0.48908 -2.46862,-1.04969 z m 132.81603,-0.6699 c 0.85506,-1.91837 1.99369,-20.6094 2.81443,-46.19993 0.44691,-13.93452 0.81152,-16.83024 2.38441,-18.93695 3.76335,-5.0406 4.24001,-4.00113 4.15162,9.05355 -0.0459,6.78333 -0.60842,21.40992 -1.25,32.50352 -1.10894,19.17507 -1.2861,20.29747 -3.5908,22.75 -2.82898,3.01043 -5.7186,3.54214 -4.50966,0.82981 z m -136.02449,-13.5 c -0.74391,-4.40314 -2.39152,-50.05348 -1.84128,-51.01631 0.69905,-1.22321 2.334,0.23781 3.48413,3.11345 1.62664,4.06708 2.97337,49.43198 1.49537,50.37194 -2.03787,1.29603 -2.57328,0.87478 -3.13822,-2.46908 z m 13.68861,-43.4359 c -5.66334,-3.29712 -11.23015,-8.63361 -11.23015,-10.76551 0,-2.4375 2.43522,-1.3322 2.81955,1.27974 0.19281,1.3103 1.03667,2.17167 2.12756,2.17167 0.9944,0 2.2988,0.59138 2.89868,1.31418 0.59987,0.7228 3.35497,2.37472 6.12244,3.67094 2.76747,1.29621 5.03177,2.95483 5.03177,3.68582 0,1.96532 -2.94766,1.45057 -7.76985,-1.35684 z m 106.76985,-2.19607 c 0,-0.55 0.45,-1.27811 1,-1.61803 0.55,-0.33992 1,-0.16803 1,0.38197 0,0.55 -0.45,1.27811 -1,1.61803 -0.55,0.33992 -1,0.16803 -1,-0.38197 z m 10.1875,-8.18053 c 0.24062,-0.72188 1.02812,-1.50938 1.75,-1.75 0.75,-0.25 1.125,0.125 0.875,0.875 -0.24063,0.72187 -1.02813,1.50937 -1.75,1.75 -0.75,0.25 -1.125,-0.125 -0.875,-0.875 z"
         id="path3107"
         inkscape:connector-curvature="0" />
    </g>
    <g
       id="g3277"
       transform="matrix(1.2496162,0,0,1.2496162,679.80815,-213.24118)"
       inkscape:export-filename="/home/vinicius/docs/wordcamp-2012/wordcana.png"
       inkscape:export-xdpi="90"
       inkscape:export-ydpi="90">
      <path
         transform="matrix(1.0423953,0,0,1.0423953,26.52695,-27.994574)"
         d="m -647.85714,584.50507 c 0,37.08197 -30.06088,67.14286 -67.14286,67.14286 -37.08198,0 -67.14286,-30.06089 -67.14286,-67.14286 0,-37.08198 30.06088,-67.14286 67.14286,-67.14286 37.08198,0 67.14286,30.06088 67.14286,67.14286 z"
         sodipodi:ry="67.14286"
         sodipodi:rx="67.14286"
         sodipodi:cy="584.50507"
         sodipodi:cx="-715"
         id="path3273"
         style="fill:#ffffff;fill-opacity:1;stroke:#000000;stroke-width:0.5;stroke-miterlimit:4;stroke-opacity:1;stroke-dasharray:none;stroke-dashoffset:0"
         sodipodi:type="arc" />
    </g>
    <g
       transform="matrix(1.25,0,0,-1.25,-455.89166,610.85148)"
       inkscape:label="wordcamp-logo"
       id="g3164"
       inkscape:export-filename="/home/vinicius/docs/wordcamp-2012/wordcana.png"
       inkscape:export-xdpi="90"
       inkscape:export-ydpi="90">
      <g
         id="g3166">
        <g
           clip-path="url(#clipPath3170)"
           id="g3168">
          <g
             id="g3261"
             transform="matrix(0.60029626,0,0,0.60029626,114.81,2.9688392)">
            <g
               id="g3174"
               transform="translate(21.4302,124.6982)">
              <path
                 inkscape:connector-curvature="0"
                 d="M 0,0 C 0,-41.193 23.935,-76.792 58.65,-93.657 L 9.011,42.35 C 3.236,29.408 0,15.087 0,0"
                 style="fill:#3a8dbf;fill-opacity:1;fill-rule:nonzero;stroke:none"
                 id="path3176" />
            </g>
            <g
               id="g3178"
               transform="translate(195.7422,129.9453)">
              <path
                 inkscape:connector-curvature="0"
                 d="m 0,0 c 0,12.863 -4.621,21.769 -8.579,28.699 -5.275,8.576 -10.222,15.832 -10.222,24.406 0,9.566 7.253,18.47 17.475,18.47 0.461,0 0.899,-0.055 1.347,-0.085 -18.512,16.966 -43.179,27.323 -70.271,27.323 -36.356,0 -68.339,-18.656 -86.947,-46.902 2.443,-0.078 4.744,-0.128 6.697,-0.128 10.882,0 27.735,1.322 27.735,1.322 5.607,0.331 6.269,-7.912 0.666,-8.574 0,0 -5.64,-0.66 -11.909,-0.991 l 37.893,-112.722 22.776,68.3 -16.212,44.422 c -5.607,0.331 -10.914,0.991 -10.914,0.991 -5.61,0.33 -4.952,8.905 0.659,8.574 0,0 17.182,-1.322 27.408,-1.322 10.88,0 27.736,1.322 27.736,1.322 5.609,0.331 6.27,-7.912 0.664,-8.574 0,0 -5.646,-0.66 -11.91,-0.991 L -18.3,-68.322 -7.918,-33.644 C -3.426,-19.244 0,-8.907 0,0"
                 style="fill:#3a8dbf;fill-opacity:1;fill-rule:nonzero;stroke:none"
                 id="path3180" />
            </g>
            <g
               id="g3182"
               transform="translate(127.3184,115.5938)">
              <path
                 inkscape:connector-curvature="0"
                 d="m 0,0 -31.225,-90.727 c 9.325,-2.744 19.185,-4.241 29.398,-4.241 12.119,0 23.742,2.091 34.558,5.898 -0.276,0.447 -0.535,0.924 -0.745,1.435 L 0,0 z"
                 style="fill:#3a8dbf;fill-opacity:1;fill-rule:nonzero;stroke:none"
                 id="path3184" />
            </g>
            <g
               id="g3186"
               transform="translate(216.8086,174.6191)">
              <path
                 inkscape:connector-curvature="0"
                 d="m 0,0 c 0.447,-3.315 0.699,-6.869 0.699,-10.7 0,-10.555 -1.976,-22.428 -7.914,-37.275 l -31.783,-91.895 c 30.936,18.04 51.743,51.555 51.743,89.949 C 12.745,-31.833 8.122,-14.821 0,0"
                 style="fill:#3a8dbf;fill-opacity:1;fill-rule:nonzero;stroke:none"
                 id="path3188" />
            </g>
            <g
               id="g3190"
               transform="translate(125.4917,8.9453)">
              <path
                 inkscape:connector-curvature="0"
                 d="m 0,0 c -63.82,0 -115.744,51.93 -115.744,115.753 0,63.818 51.924,115.738 115.744,115.738 63.821,0 115.746,-51.92 115.746,-115.738 C 115.746,51.93 63.821,0 0,0 m 0,237.055 c -66.89,0 -121.306,-54.415 -121.306,-121.302 C -121.306,48.859 -66.89,-5.56 0,-5.56 c 66.89,0 121.31,54.419 121.31,121.313 0,66.887 -54.42,121.302 -121.31,121.302"
                 style="fill:#3a8dbf;fill-opacity:1;fill-rule:nonzero;stroke:none"
                 id="path3192" />
            </g>
          </g>
          <g
             transform="translate(391.4785,54.5703)"
             id="g3194">
            <path
               id="path3196"
               style="fill:#3a8dbf;fill-opacity:1;fill-rule:nonzero;stroke:none"
               d="m 0,0 -16.955,63.325 -1.039,0 L -33.912,0 -67.822,0 -93.949,106.753 c -0.52,2.249 -1.731,2.596 -3.807,3.114 l -8.824,1.904 1.73,13.495 52.944,0 0,-13.495 -14.533,-1.731 17.648,-84.606 1.385,0 19.896,76.647 26.299,0 19.725,-77.166 1.384,0 17.821,85.125 -14.533,1.731 1.73,13.495 46.715,0 0,-13.495 -8.133,-1.904 c -2.248,-0.346 -3.287,-0.865 -3.978,-3.114 L 34.951,0 0,0 z"
               inkscape:connector-curvature="0" />
          </g>
          <g
             transform="translate(522.6348,100.0742)"
             id="g3198">
            <path
               id="path3200"
               style="fill:#3a8dbf;fill-opacity:1;fill-rule:nonzero;stroke:none"
               d="m 0,0 c 0,20.416 -6.229,27.684 -17.475,27.684 -11.42,0 -19.033,-7.094 -19.033,-27.857 0,-20.935 6.748,-29.24 18.34,-29.24 C -6.922,-29.413 0,-21.627 0,0 m -63.844,-1.038 c 0,28.722 15.053,47.407 46.715,47.407 32.008,0 44.465,-19.032 44.465,-45.504 0,-29.413 -14.879,-48.445 -46.715,-48.445 -31.662,0 -44.465,19.378 -44.465,46.542"
               inkscape:connector-curvature="0" />
          </g>
          <g
             transform="translate(558.627,54.5703)"
             id="g3202">
            <path
               id="path3204"
               style="fill:#3a8dbf;fill-opacity:1;fill-rule:nonzero;stroke:none"
               d="m 0,0 0,14.015 7.785,1.038 c 2.424,0.345 2.77,0.865 2.77,3.46 l 0,50.695 c 0,1.903 -0.52,3.114 -2.25,3.633 l -9.344,3.288 1.904,14.015 30.451,0 2.077,-13.842 1.039,0 c 5.709,8.824 13.322,15.571 24.394,15.571 3.981,0 11.94,-0.691 15.053,-1.557 l 0,-31.49 -20.762,0.693 -1.73,9.169 c -0.346,1.558 -0.866,1.904 -2.25,1.904 -4.498,0 -9.862,-3.807 -12.457,-6.056 l 0,-45.849 c 0,-2.769 0.174,-3.289 2.769,-3.461 L 56.578,13.842 56.578,0 0,0 z"
               inkscape:connector-curvature="0" />
          </g>
          <g
             transform="translate(700.332,121.1826)"
             id="g3206">
            <path
               id="path3208"
               style="fill:#3a8dbf;fill-opacity:1;fill-rule:nonzero;stroke:none"
               d="m 0,0 c -4.326,2.941 -9.861,5.19 -14.879,5.19 -12.805,0 -17.822,-11.938 -17.822,-27.336 0,-16.783 4.846,-26.126 15.746,-26.126 5.883,0 12.283,3.46 16.955,7.44 L 0,0 z m 4.844,-66.612 -1.729,9.689 -1.211,0.173 c -7.267,-7.094 -15.746,-11.938 -28.377,-11.938 -20.416,0 -33.564,12.976 -33.564,46.023 0,34.776 17.474,47.926 36.68,47.926 10.035,0 17.82,-3.46 24.396,-8.305 l 0,26.299 c 0,1.73 -0.693,2.941 -2.25,3.461 l -9.516,3.287 1.903,14.015 34.777,0 0,-112.463 c 0,-2.596 0.174,-2.942 2.768,-3.287 l 8.304,-1.211 0,-13.669 -32.181,0 z"
               inkscape:connector-curvature="0" />
          </g>
          <g
             transform="translate(849.3047,62.0098)"
             id="g3210">
            <path
               id="path3212"
               style="fill:#3a8dbf;fill-opacity:1;fill-rule:nonzero;stroke:none"
               d="m 0,0 c -10.209,-6.229 -27.512,-9.516 -43.256,-9.516 -43.082,0 -60.73,25.088 -60.73,65.229 0,36.852 21.281,64.363 64.363,64.363 14.361,0 29.76,-3.634 39.275,-9.862 l 0,-33.912 -19.031,1.557 -2.767,16.956 c -0.348,1.73 -1.04,2.595 -2.77,3.115 -3.807,1.211 -9.689,2.076 -15.398,2.076 -21.973,0 -35.989,-14.88 -35.989,-44.293 0,-30.625 13.323,-45.504 34.778,-45.504 5.709,0 12.802,0.864 17.302,2.249 2.077,0.519 2.594,1.038 3.114,3.633 L -18.514,32.182 0,32.182 0,0 z"
               inkscape:connector-curvature="0" />
          </g>
          <g
             transform="translate(913.3242,91.7695)"
             id="g3214">
            <path
               id="path3216"
               style="fill:#3a8dbf;fill-opacity:1;fill-rule:nonzero;stroke:none"
               d="m 0,0 -11.766,-0.865 c -10.209,-0.693 -13.841,-3.287 -13.841,-10.208 0,-6.921 4.152,-9.517 9.861,-9.517 5.883,0 11.766,3.288 15.746,6.23 L 0,0 z m 4.67,-37.199 -1.729,9.343 -0.865,0.172 c -6.576,-6.401 -15.226,-11.591 -29.068,-11.591 -21.801,0 -25.26,14.879 -25.26,25.606 0,17.303 10.727,25.261 32.354,26.646 L 0,14.36 0,23.877 c 0,8.132 -0.865,13.668 -11.594,13.668 -8.304,0 -12.629,-1.211 -12.629,-11.592 l -24.396,2.076 c 0,23.358 21.281,26.645 37.199,26.645 26.299,0 36.854,-7.094 36.854,-31.317 l 0,-42.044 c 0,-2.767 0.171,-3.114 2.767,-3.459 l 8.305,-1.384 0,-13.669 -31.836,0 z"
               inkscape:connector-curvature="0" />
          </g>
          <g
             transform="translate(1065.7559,54.5703)"
             id="g3218">
            <path
               id="path3220"
               style="fill:#3a8dbf;fill-opacity:1;fill-rule:nonzero;stroke:none"
               d="m -23.703,66.094 c 0.346,-2.769 0.517,-5.537 0.517,-8.479 l 0,-39.275 c 0,-2.942 0.174,-3.287 2.77,-3.633 l 6.92,-1.038 0,-13.669 -35.815,0 0,56.75 c 0,6.402 -0.519,14.015 -9.169,14.015 -5.192,0 -10.901,-2.595 -14.362,-5.536 l 0,-46.889 c 0,-2.942 0.174,-2.942 2.77,-3.46 l 8.476,-1.211 0,-13.669 -47.925,0 0,13.669 7.785,1.211 c 2.423,0.346 2.769,0.865 2.769,3.46 l 0,50.868 c 0,1.903 -0.519,3.114 -2.25,3.633 l -9.344,3.288 1.905,14.015 30.451,0 1.385,-8.998 0.865,-0.173 c 7.785,6.402 16.609,10.9 27.682,10.9 8.478,0 16.263,-2.249 21.109,-10.381 3.47618,-3.948593 3.461,-15.398 3.461,-15.398 z"
               inkscape:connector-curvature="0"
               sodipodi:nodetypes="cssccccsscsccccccssccccccscc" />
          </g>
          <g
             transform="translate(1145.8672,79.3125)"
             id="g3222" />
          <g
             id="g3257"
             transform="translate(1111.0385,91.7695)">
            <path
               inkscape:connector-curvature="0"
               d="m 0,0 -11.766,-0.865 c -10.209,-0.693 -13.841,-3.287 -13.841,-10.208 0,-6.921 4.152,-9.517 9.861,-9.517 5.883,0 11.766,3.288 15.746,6.23 L 0,0 z m 4.67,-37.199 -1.729,9.343 -0.865,0.172 c -6.576,-6.401 -15.226,-11.591 -29.068,-11.591 -21.801,0 -25.26,14.879 -25.26,25.606 0,17.303 10.727,25.261 32.354,26.646 L 0,14.36 0,23.877 c 0,8.132 -0.865,13.668 -11.594,13.668 -8.304,0 -12.629,-1.211 -12.629,-11.592 l -24.396,2.076 c 0,23.358 21.281,26.645 37.199,26.645 26.299,0 36.854,-7.094 36.854,-31.317 l 0,-42.044 c 0,-2.767 0.171,-3.114 2.767,-3.459 l 8.305,-1.384 0,-13.669 -31.836,0 z"
               style="fill:#3a8dbf;fill-opacity:1;fill-rule:nonzero;stroke:none"
               id="path3259" />
          </g>
        </g>
      </g>
    </g>
  </g>
</svg>
